<?xml version="1.0" encoding="utf-8"?>
<!-- Generator: Adobe Illustrator 26.3.1, SVG Export Plug-In . SVG Version: 6.00 Build 0)  -->
<svg version="1.1" id="Слой_1" xmlns="http://www.w3.org/2000/svg" xmlns:xlink="http://www.w3.org/1999/xlink" x="0px" y="0px"
	 viewBox="0 0 1920 612.7" style="enable-background:new 0 0 1920 612.7;" xml:space="preserve">
<style type="text/css">
	.st0{fill:#FF1520;}
</style>
<g>
	<g>
		<path class="st0" d="M123.5,3.6L4.2,365.1h105.9l20.9-69.2h119.2l20.9,69.2H377L257.7,3.6H123.5z M153.2,222.5l36-119.3h2.8
			l36,119.3H153.2z"/>
		<path class="st0" d="M466,155.4c-1.2,32.2-3.9,57.7-8.2,76.4c-4.3,18.7-10.4,32.2-18.4,40.8c-7.9,8.5-17.9,13.7-29.9,15.6
			l-9.9,1.4v75.6h24c30.6,0,55.3-5.5,74-16.6c18.7-11.1,32.7-29.1,41.8-54.2c9.2-25.1,14.8-58.7,16.9-100.8L562,79.8h77v285.3h94.6
			V3.6h-262L466,155.4z"/>
		<path class="st0" d="M887.6,3.6L768.2,365.1h105.9l20.9-69.2h119.2l20.9,69.2h105.9L1021.7,3.6H887.6z M917.2,222.5l36-119.3h2.8
			l36,119.3H917.2z"/>
		<path class="st0" d="M1402.1,19.4c-20.1-10.6-43.6-15.9-70.4-15.9h-156.1v361.5h98.2V257.8h54.4c27.5,0,51.6-5.1,72.3-15.4
			c20.7-10.2,36.7-24.8,48.2-43.8c11.5-18.9,17.2-41.4,17.2-67.3c0-25.7-5.6-48.1-16.8-67.3C1437.9,44.9,1422.3,30,1402.1,19.4z
			 M1356.9,158c-4.4,7.5-10.7,13.3-18.9,17.4c-8.2,4.1-18,6.1-29.6,6.1h-34.6V81.9h34.6c11.5,0,21.4,2,29.6,5.9
			c8.2,3.9,14.5,9.6,18.9,16.9c4.4,7.4,6.6,16.2,6.6,26.6C1363.5,141.6,1361.3,150.5,1356.9,158z"/>
		<polygon class="st0" points="1796.3,3.6 1712.3,208.3 1708.1,208.3 1624,3.6 1501.9,3.6 1501.9,365.1 1597.9,365.1 1597.9,154.7 
			1600.7,154.7 1681.2,362.3 1739.1,362.3 1819.6,156.1 1822.5,156.1 1822.5,365.1 1918.5,365.1 1918.5,3.6 		"/>
	</g>
	<g>
		<path d="M43,475.6L2.3,586.5h14.1l11.1-31.4h44.8l11.1,31.4h14.1L56.9,475.6H43z M31.8,543.2l17.8-50h0.9l17.8,50H31.8z"/>
		<path d="M305.6,532.9c-3.4-2.2-6.8-3.4-10.2-3.6v-1.1c3.2-0.9,6.1-2.2,8.9-4c2.7-1.8,4.9-4.3,6.6-7.4c1.7-3.1,2.5-7,2.5-11.8
			c0-5.4-1.2-10.4-3.7-14.8c-2.5-4.5-6.2-8-11.2-10.7c-5-2.7-11.4-4-19.1-4h-38.8v110.9h40.1c8.7,0,15.8-1.3,21.3-3.9
			c5.4-2.6,9.4-6.1,12-10.6c2.5-4.4,3.8-9.4,3.8-15c0-5.8-1.2-10.8-3.5-14.8C311.9,538.2,309,535.1,305.6,532.9z M254,487.5h25.3
			c7.4,0,12.7,1.7,16.1,5.1c3.4,3.4,5.1,7.6,5.1,12.4c0,3.9-1,7.3-2.9,10.2c-1.9,2.9-4.5,5.1-7.8,6.7c-3.3,1.6-6.9,2.4-11,2.4H254
			V487.5z M299.3,569.5c-3.7,3.4-9.9,5.1-18.7,5.1H254V536h27.3c4.8,0,9,1,12.6,2.9s6.3,4.5,8.2,7.7c1.9,3.2,2.9,6.7,2.9,10.4
			C304.9,561.9,303,566.1,299.3,569.5z"/>
		<polygon points="459.3,487.5 494.1,487.5 494.1,586.5 507.6,586.5 507.6,487.5 542.4,487.5 542.4,475.6 459.3,475.6 		"/>
		<path d="M754.1,481c-7.4-4.6-15.8-6.9-25.2-6.9s-17.9,2.3-25.2,6.9c-7.4,4.6-13.2,11.2-17.4,19.7c-4.2,8.5-6.3,18.6-6.3,30.3
			c0,11.7,2.1,21.8,6.3,30.3c4.2,8.5,10,15.1,17.4,19.7c7.4,4.6,15.8,6.9,25.2,6.9s17.9-2.3,25.2-6.9c7.4-4.6,13.2-11.2,17.4-19.7
			c4.2-8.5,6.3-18.6,6.3-30.3c0-11.7-2.1-21.8-6.3-30.3C767.3,492.2,761.5,485.7,754.1,481z M760.1,555.4c-3.2,6.6-7.5,11.6-12.9,15
			c-5.4,3.4-11.5,5.1-18.2,5.1c-6.7,0-12.8-1.7-18.2-5.1c-5.4-3.4-9.7-8.4-12.9-15c-3.2-6.6-4.8-14.7-4.8-24.3
			c0-9.6,1.6-17.7,4.8-24.3c3.2-6.6,7.5-11.6,12.9-15c5.4-3.4,11.5-5.1,18.2-5.1c6.7,0,12.8,1.7,18.2,5.1c5.4,3.4,9.7,8.4,12.9,15
			c3.2,6.6,4.8,14.7,4.8,24.3C764.8,540.7,763.3,548.8,760.1,555.4z"/>
		<polygon points="1008.7,475.6 995.9,475.6 995.9,574.2 938.8,574.2 938.8,475.6 926,475.6 926,586.5 997,586.5 1004.8,586.5 
			1004.8,612.7 1018.7,612.7 1020.2,573.7 1008.7,573.7 		"/>
		<polygon points="1179.6,536.9 1229.6,536.9 1229.6,525 1179.6,525 1179.6,487.5 1233.1,487.5 1233.1,475.6 1166.1,475.6 
			1166.1,586.5 1233.9,586.5 1233.9,574.6 1179.6,574.6 		"/>
		<polygon points="1455.5,525 1396.4,525 1396.4,475.6 1382.9,475.6 1382.9,586.5 1396.4,586.5 1396.4,536.9 1455.5,536.9 
			1455.5,586.5 1468.9,586.5 1468.9,475.6 1455.5,475.6 		"/>
		<polygon points="1615.3,487.5 1650.2,487.5 1650.2,586.5 1663.6,586.5 1663.6,487.5 1698.5,487.5 1698.5,475.6 1615.3,475.6 		"/>
		<path d="M1916,493c-2.7-5.3-6.8-9.5-12.3-12.6c-5.5-3.1-12.7-4.7-21.4-4.7h-37.5v110.9h13.4V546h24.3c8.6,0,15.7-1.6,21.2-4.7
			c5.5-3.2,9.6-7.4,12.3-12.7c2.7-5.3,4-11.3,4-17.8C1920,504.2,1918.7,498.3,1916,493z M1904.3,522.6c-1.6,3.5-4.3,6.3-7.9,8.4
			c-3.6,2.1-8.4,3.1-14.3,3.1h-23.8v-46.6h23.6c6,0,10.9,1,14.5,3c3.6,2,6.3,4.8,7.9,8.3c1.6,3.5,2.5,7.5,2.5,11.9
			C1906.8,515.1,1906,519.1,1904.3,522.6z"/>
	</g>
</g>
</svg>
