<svg xmlns="http://www.w3.org/2000/svg" xmlns:xlink="http://www.w3.org/1999/xlink" width="278" height="38.921" viewBox="0 0 278 38.921">
  <defs>
    <linearGradient id="linear-gradient" x1="4.633" y1="4.919" x2="1.56" y2="1.633" gradientUnits="objectBoundingBox">
      <stop offset="0" stop-color="#004d7a"/>
      <stop offset="0.33" stop-color="#008793"/>
      <stop offset="0.66" stop-color="#00bf72"/>
      <stop offset="1" stop-color="#a8eb12"/>
    </linearGradient>
    <linearGradient id="linear-gradient-2" x1="4.771" y1="4.929" x2="1.698" y2="1.742" xlink:href="#linear-gradient"/>
    <linearGradient id="linear-gradient-3" x1="4.847" y1="4.745" x2="1.766" y2="1.736" xlink:href="#linear-gradient"/>
    <linearGradient id="linear-gradient-4" x1="4.848" y1="4.452" x2="1.77" y2="1.654" xlink:href="#linear-gradient"/>
    <linearGradient id="linear-gradient-5" x1="4.794" y1="4.045" x2="1.713" y2="1.499" xlink:href="#linear-gradient"/>
    <linearGradient id="linear-gradient-6" x1="4.687" y1="3.643" x2="1.611" y2="1.333" xlink:href="#linear-gradient"/>
    <linearGradient id="linear-gradient-7" x1="4.54" y1="3.254" x2="1.464" y2="1.157" xlink:href="#linear-gradient"/>
    <linearGradient id="linear-gradient-8" x1="4.366" y1="2.908" x2="1.292" y2="0.993" xlink:href="#linear-gradient"/>
    <linearGradient id="linear-gradient-9" x1="4.168" y1="2.587" x2="1.09" y2="0.836" xlink:href="#linear-gradient"/>
    <linearGradient id="linear-gradient-10" x1="3.975" y1="2.355" x2="0.894" y2="0.71" xlink:href="#linear-gradient"/>
    <linearGradient id="linear-gradient-11" x1="3.754" y1="2.132" x2="0.677" y2="0.59" xlink:href="#linear-gradient"/>
    <linearGradient id="linear-gradient-12" x1="3.557" y1="1.959" x2="0.477" y2="0.489" xlink:href="#linear-gradient"/>
    <linearGradient id="linear-gradient-13" x1="3.366" y1="1.819" x2="0.288" y2="0.402" xlink:href="#linear-gradient"/>
    <linearGradient id="linear-gradient-14" x1="3.196" y1="1.714" x2="0.122" y2="0.33" xlink:href="#linear-gradient"/>
    <linearGradient id="linear-gradient-15" x1="3.068" y1="1.645" x2="-0.013" y2="0.271" xlink:href="#linear-gradient"/>
    <linearGradient id="linear-gradient-16" x1="2.966" y1="1.615" x2="-0.106" y2="0.226" gradientUnits="objectBoundingBox">
      <stop offset="0" stop-color="#004d7a"/>
      <stop offset="0.33" stop-color="#008793"/>
      <stop offset="0.49" stop-color="#00a283"/>
      <stop offset="0.66" stop-color="#00bf72"/>
      <stop offset="1" stop-color="#a8eb12"/>
    </linearGradient>
    <linearGradient id="linear-gradient-17" x1="2.927" y1="1.628" x2="-0.152" y2="0.197" xlink:href="#linear-gradient"/>
    <linearGradient id="linear-gradient-18" x1="2.941" y1="1.699" x2="-0.137" y2="0.187" xlink:href="#linear-gradient"/>
    <linearGradient id="linear-gradient-19" x1="3.026" y1="1.848" x2="-0.058" y2="0.202" xlink:href="#linear-gradient"/>
    <linearGradient id="linear-gradient-20" x1="3.171" y1="2.127" x2="0.094" y2="0.253" xlink:href="#linear-gradient"/>
    <linearGradient id="linear-gradient-21" x1="3.402" y1="2.643" x2="0.331" y2="0.374" xlink:href="#linear-gradient"/>
    <linearGradient id="linear-gradient-22" x1="3.731" y1="3.713" x2="0.655" y2="0.654" xlink:href="#linear-gradient"/>
  </defs>
  <g id="Aurora" transform="translate(0)">
    <g id="symbol" transform="translate(0)">
      <path id="Контур_2170" data-name="Контур 2170" d="M1244.213,1372.84s-.73,1.687-.733,5.808.733,5.8.733,5.8.734-1.684.734-5.8S1244.213,1372.84,1244.213,1372.84Z" transform="translate(-1243.48 -1367.446)" fill="url(#linear-gradient)"/>
      <path id="Контур_2171" data-name="Контур 2171" d="M1279.7,1351.34s-.733,1.739-.733,5.985.733,5.981.733,5.981.733-1.736.733-5.981S1279.7,1351.34,1279.7,1351.34Z" transform="translate(-1275.044 -1348.324)" fill="url(#linear-gradient-2)"/>
      <path id="Контур_2172" data-name="Контур 2172" d="M1315.193,1336.45s-.733,1.841-.733,6.339.731,6.339.731,6.339.732-1.84.732-6.339S1315.193,1336.45,1315.193,1336.45Z" transform="translate(-1306.608 -1335.082)" fill="url(#linear-gradient-3)"/>
      <path id="Контур_2173" data-name="Контур 2173" d="M1350.673,1327.48s-.733,1.976-.733,6.815.732,6.813.732,6.813.732-1.978.732-6.813S1350.673,1327.48,1350.673,1327.48Z" transform="translate(-1338.163 -1327.104)" fill="url(#linear-gradient-4)"/>
      <path id="Контур_2174" data-name="Контур 2174" d="M1386.121,1324.08s-.731,2.171-.731,7.492.731,7.489.731,7.489.732-2.172.732-7.489S1386.121,1324.08,1386.121,1324.08Z" transform="translate(-1369.692 -1324.08)" fill="url(#linear-gradient-5)"/>
      <path id="Контур_2175" data-name="Контур 2175" d="M1421.633,1324.08s-.732,2.394-.733,8.257.733,8.254.733,8.254.732-2.394.732-8.254S1421.633,1324.08,1421.633,1324.08Z" transform="translate(-1401.273 -1324.08)" fill="url(#linear-gradient-6)"/>
      <path id="Контур_2176" data-name="Контур 2176" d="M1457.112,1329s-.732,2.637-.732,9.092.732,9.094.732,9.094.733-2.638.733-9.094S1457.112,1329,1457.112,1329Z" transform="translate(-1432.829 -1328.456)" fill="url(#linear-gradient-7)"/>
      <path id="Контур_2177" data-name="Контур 2177" d="M1491.493,1336.45s-.733,2.888-.733,9.964.732,9.956.732,9.956.734-2.891.734-9.956S1491.493,1336.45,1491.493,1336.45Z" transform="translate(-1463.405 -1335.082)" fill="url(#linear-gradient-8)"/>
      <path id="Контур_2178" data-name="Контур 2178" d="M1528.1,1346.86s-.732,3.161-.733,10.887.733,10.884.733,10.884.731-3.156.731-10.884S1528.1,1346.86,1528.1,1346.86Z" transform="translate(-1495.965 -1344.34)" fill="url(#linear-gradient-9)"/>
      <path id="Контур_2179" data-name="Контур 2179" d="M1563.564,1358.76s-.734,3.363-.734,11.59.734,11.59.734,11.59.729-3.363.729-11.59S1563.564,1358.76,1563.564,1358.76Z" transform="translate(-1527.503 -1354.924)" fill="url(#linear-gradient-10)"/>
      <path id="Контур_2180" data-name="Контур 2180" d="M1599.094,1371.67s-.735,3.588-.735,12.369.735,12.368.735,12.368.731-3.589.731-12.368S1599.094,1371.67,1599.094,1371.67Z" transform="translate(-1559.102 -1366.405)" fill="url(#linear-gradient-11)"/>
      <path id="Контур_2181" data-name="Контур 2181" d="M1634.553,1384.94s-.733,3.761-.733,12.979.733,12.975.733,12.975.731-3.761.731-12.975S1634.553,1384.94,1634.553,1384.94Z" transform="translate(-1590.64 -1378.208)" fill="url(#linear-gradient-12)"/>
      <path id="Контур_2182" data-name="Контур 2182" d="M1670.025,1398s-.735,3.905-.735,13.456.733,13.454.733,13.454.731-3.9.731-13.454S1670.025,1398,1670.025,1398Z" transform="translate(-1622.186 -1389.823)" fill="url(#linear-gradient-13)"/>
      <path id="Контур_2183" data-name="Контур 2183" d="M1705.5,1409.75s-.732,4-.735,13.774.735,13.776.735,13.776.732-4,.732-13.776S1705.5,1409.75,1705.5,1409.75Z" transform="translate(-1653.741 -1400.273)" fill="url(#linear-gradient-14)"/>
      <path id="Контур_2184" data-name="Контур 2184" d="M1740.992,1419.89s-.732,4.024-.732,13.875.732,13.874.732,13.874.731-4.026.731-13.874S1740.992,1419.89,1740.992,1419.89Z" transform="translate(-1685.305 -1409.291)" fill="url(#linear-gradient-15)"/>
      <path id="Контур_2185" data-name="Контур 2185" d="M1776.476,1427.72s-.734,3.982-.736,13.726.734,13.73.734,13.73.734-3.982.734-13.73S1776.476,1427.72,1776.476,1427.72Z" transform="translate(-1716.86 -1416.255)" fill="url(#linear-gradient-16)"/>
      <path id="Контур_2186" data-name="Контур 2186" d="M1811.971,1432.17s-.731,3.866-.731,13.326.731,13.324.731,13.324.733-3.872.733-13.324S1811.971,1432.17,1811.971,1432.17Z" transform="translate(-1748.433 -1420.213)" fill="url(#linear-gradient-17)"/>
      <path id="Контур_2187" data-name="Контур 2187" d="M1847.442,1432.92s-.731,3.658-.732,12.611.732,12.611.732,12.611.732-3.658.732-12.611S1847.442,1432.92,1847.442,1432.92Z" transform="translate(-1779.979 -1420.88)" fill="url(#linear-gradient-18)"/>
      <path id="Контур_2188" data-name="Контур 2188" d="M1882.942,1428.87s-.732,3.363-.732,11.588.731,11.584.731,11.584.731-3.36.731-11.584S1882.942,1428.87,1882.942,1428.87Z" transform="translate(-1811.552 -1417.278)" fill="url(#linear-gradient-19)"/>
      <path id="Контур_2189" data-name="Контур 2189" d="M1918.4,1420.17s-.73,2.954-.732,10.177.732,10.177.732,10.177.733-2.954.733-10.177S1918.4,1420.17,1918.4,1420.17Z" transform="translate(-1843.09 -1409.54)" fill="url(#linear-gradient-20)"/>
      <path id="Контур_2190" data-name="Контур 2190" d="M1953.887,1405.27s-.733,2.434-.737,8.407.734,8.407.734,8.407.734-2.434.734-8.407S1953.887,1405.27,1953.887,1405.27Z" transform="translate(-1874.645 -1396.289)" fill="url(#linear-gradient-21)"/>
      <path id="Контур_2191" data-name="Контур 2191" d="M1989.383,1383.75s-.731,1.809-.733,6.232.733,6.235.733,6.235.732-1.807.732-6.235S1989.383,1383.75,1989.383,1383.75Z" transform="translate(-1906.218 -1377.149)" fill="url(#linear-gradient-22)"/>
    </g>
    <path id="Контур_2192" data-name="Контур 2192" d="M2181.85,1442.285l5.761-13.405h.782l5.876,13.405h-.875l-1.692-3.878.442.17h-8.309l.532-.17-1.654,3.878Zm6.123-12.34-3.4,8-.418-.111h7.663l-.3.111-3.5-8Z" transform="translate(-2078.046 -1417.287)" fill="#118c27"/>
    <path id="Контур_2193" data-name="Контур 2193" d="M2354.332,1442.438a6.087,6.087,0,0,1-2.876-.608,3.791,3.791,0,0,1-1.692-1.788,6.777,6.777,0,0,1-.553-2.891v-8.271h.8v8.157a5.037,5.037,0,0,0,1.037,3.47,5.148,5.148,0,0,0,6.488,0,4.888,4.888,0,0,0,1.106-3.47v-8.157h.8v8.271a6.425,6.425,0,0,1-.589,2.891,4,4,0,0,1-1.73,1.788A5.846,5.846,0,0,1,2354.332,1442.438Z" transform="translate(-2226.892 -1417.287)" fill="#118c27"/>
    <path id="Контур_2194" data-name="Контур 2194" d="M2508.61,1442.285V1428.88h5.132a4.741,4.741,0,0,1,3.156.95,3.325,3.325,0,0,1,1.123,2.681,3.432,3.432,0,0,1-.513,1.912,3.268,3.268,0,0,1-1.4,1.2,4.769,4.769,0,0,1-2.026.409l.4-.152h.152a2.645,2.645,0,0,1,1.36.351,2.439,2.439,0,0,1,.96,1.265l1.844,4.791h-.894l-1.673-4.487a2.1,2.1,0,0,0-1.113-1.341,5.147,5.147,0,0,0-1.892-.3h-3.822v6.123Zm.8-6.859h4.259a3.951,3.951,0,0,0,2.605-.751,2.665,2.665,0,0,0,.894-2.158,2.632,2.632,0,0,0-.894-2.148,4,4,0,0,0-2.605-.742h-4.259Z" transform="translate(-2368.659 -1417.287)" fill="#118c27"/>
    <path id="Контур_2195" data-name="Контур 2195" d="M2654.72,1434.345a8.812,8.812,0,0,1,.694-3.659,5.26,5.26,0,0,1,2.015-2.358,5.937,5.937,0,0,1,3.208-.827,5.861,5.861,0,0,1,3.157.827,5.425,5.425,0,0,1,2.053,2.358,9.553,9.553,0,0,1-.009,7.311,5.539,5.539,0,0,1-2.063,2.376,5.746,5.746,0,0,1-3.138.837,5.827,5.827,0,0,1-3.185-.837,5.37,5.37,0,0,1-2.024-2.376A8.683,8.683,0,0,1,2654.72,1434.345Zm.855,0a8.347,8.347,0,0,0,.58,3.281,4.48,4.48,0,0,0,1.711,2.082,5.036,5.036,0,0,0,2.765.723,4.618,4.618,0,0,0,3.727-1.6,6.757,6.757,0,0,0,1.351-4.488,8.082,8.082,0,0,0-.6-3.289,4.515,4.515,0,0,0-1.739-2.063,5.065,5.065,0,0,0-2.739-.714,4.561,4.561,0,0,0-3.761,1.589A6.95,6.95,0,0,0,2655.575,1434.345Z" transform="translate(-2498.605 -1416.06)" fill="#118c27"/>
    <path id="Контур_2196" data-name="Контур 2196" d="M2824.54,1442.285V1428.88h5.139a4.741,4.741,0,0,1,3.156.95,3.321,3.321,0,0,1,1.122,2.681,3.432,3.432,0,0,1-.513,1.912,3.258,3.258,0,0,1-1.4,1.2,4.766,4.766,0,0,1-2.025.409l.4-.152h.144a2.646,2.646,0,0,1,1.36.351,2.447,2.447,0,0,1,.96,1.265l1.844,4.791h-.894l-1.673-4.487a2.1,2.1,0,0,0-1.113-1.341,5.148,5.148,0,0,0-1.892-.3h-3.822v6.123Zm.8-6.859h4.259a3.951,3.951,0,0,0,2.6-.751,2.665,2.665,0,0,0,.894-2.158,2.63,2.63,0,0,0-.894-2.148,4,4,0,0,0-2.6-.742h-4.259Z" transform="translate(-2649.64 -1417.287)" fill="#118c27"/>
    <path id="Контур_2197" data-name="Контур 2197" d="M2963.94,1442.285l5.759-13.405h.78l5.875,13.405h-.874l-1.688-3.878.437.17h-8.309l.532-.17-1.659,3.878Zm6.123-12.34-3.4,8-.418-.111h7.662l-.3.111-3.5-8Z" transform="translate(-2773.619 -1417.287)" fill="#118c27"/>
    <path id="Контур_2198" data-name="Контур 2198" d="M3199.6,1442.285l5.761-13.405h.78l5.875,13.405h-.874l-1.693-3.878.442.17h-8.309l.532-.17-1.659,3.878Zm6.128-12.34-3.4,8-.418-.111h7.663l-.3.111-3.5-8Z" transform="translate(-2983.21 -1417.287)" fill="#118c27"/>
    <path id="Контур_2199" data-name="Контур 2199" d="M3372.082,1442.438a6.086,6.086,0,0,1-2.876-.608,3.8,3.8,0,0,1-1.692-1.788,6.777,6.777,0,0,1-.553-2.891v-8.271h.8v8.157a5.038,5.038,0,0,0,1.036,3.47,5.149,5.149,0,0,0,6.488,0,4.888,4.888,0,0,0,1.106-3.47v-8.157h.8v8.271a6.419,6.419,0,0,1-.59,2.891,4.007,4.007,0,0,1-1.73,1.788A5.846,5.846,0,0,1,3372.082,1442.438Z" transform="translate(-3132.056 -1417.287)" fill="#118c27"/>
    <path id="Контур_2200" data-name="Контур 2200" d="M3516.418,1442.285v-12.664h-4.978v-.741H3522.2v.741h-4.978v12.664Z" transform="translate(-3260.554 -1417.287)" fill="#118c27"/>
    <path id="Контур_2201" data-name="Контур 2201" d="M3649.43,1434.345a8.812,8.812,0,0,1,.694-3.659,5.272,5.272,0,0,1,2.016-2.358,5.957,5.957,0,0,1,3.208-.827,5.854,5.854,0,0,1,3.156.827,5.42,5.42,0,0,1,2.052,2.358,9.542,9.542,0,0,1-.009,7.311,5.533,5.533,0,0,1-2.063,2.376,5.744,5.744,0,0,1-3.137.837,5.822,5.822,0,0,1-3.185-.837,5.369,5.369,0,0,1-2.025-2.376A8.7,8.7,0,0,1,3649.43,1434.345Zm.855,0a8.333,8.333,0,0,0,.581,3.281,4.472,4.472,0,0,0,1.711,2.082,5.031,5.031,0,0,0,2.765.723,4.619,4.619,0,0,0,3.727-1.6,6.746,6.746,0,0,0,1.35-4.488,8.1,8.1,0,0,0-.6-3.289,4.52,4.52,0,0,0-1.74-2.063,5.063,5.063,0,0,0-2.738-.714,4.559,4.559,0,0,0-3.761,1.589A6.961,6.961,0,0,0,3650.285,1434.345Z" transform="translate(-3383.279 -1416.06)" fill="#118c27"/>
  </g>
</svg>
